<svg xmlns="http://www.w3.org/2000/svg" xmlns:xlink="http://www.w3.org/1999/xlink" width="500" zoomAndPan="magnify" viewBox="0 0 375 374.999991" height="500" preserveAspectRatio="xMidYMid meet" version="1.0"><defs><g/><clipPath id="ce7b36fc9d"><path d="M 217.285156 11.777344 L 273.503906 11.777344 L 273.503906 168.355469 L 217.285156 168.355469 Z M 217.285156 11.777344 " clip-rule="nonzero"/></clipPath><clipPath id="e3bde92ced"><path d="M 217.285156 35.257812 L 217.285156 168.355469 L 273.503906 144.929688 L 273.503906 11.832031 Z M 217.285156 35.257812 " clip-rule="nonzero"/></clipPath><clipPath id="b81b403f19"><path d="M 274.902344 11.835938 L 360.773438 11.835938 L 360.773438 287.566406 L 274.902344 287.566406 Z M 274.902344 11.835938 " clip-rule="nonzero"/></clipPath><clipPath id="d25dd603b0"><path d="M 360.773438 39.851562 L 360.773438 287.433594 L 274.902344 259.417969 L 274.902344 11.835938 Z M 360.773438 39.851562 " clip-rule="nonzero"/></clipPath><clipPath id="8ed1a7bc0c"><path d="M 109.65625 79.679688 L 171.710938 79.679688 L 171.710938 203.058594 L 109.65625 203.058594 Z M 109.65625 79.679688 " clip-rule="nonzero"/></clipPath><clipPath id="de09ae117a"><path d="M 109.65625 103.253906 L 109.65625 203.058594 L 171.710938 179.636719 L 171.710938 79.828125 Z M 109.65625 103.253906 " clip-rule="nonzero"/></clipPath><clipPath id="d57c14d314"><path d="M 172.921875 79.835938 L 233.222656 79.835938 L 233.222656 259.792969 L 172.921875 259.792969 Z M 172.921875 79.835938 " clip-rule="nonzero"/></clipPath><clipPath id="1b1fc9f8a0"><path d="M 233.222656 99.9375 L 233.222656 259.691406 L 172.921875 239.59375 L 172.921875 79.835938 Z M 233.222656 99.9375 " clip-rule="nonzero"/></clipPath><clipPath id="64c6dbfb34"><path d="M 14.222656 18.953125 L 76.273438 18.953125 L 76.273438 238.082031 L 14.222656 238.082031 Z M 14.222656 18.953125 " clip-rule="nonzero"/></clipPath><clipPath id="7194311dda"><path d="M 14.222656 42.398438 L 14.222656 238.082031 L 76.273438 214.660156 L 76.273438 18.976562 Z M 14.222656 42.398438 " clip-rule="nonzero"/></clipPath><clipPath id="bd2bba62fb"><path d="M 77.671875 18.976562 L 141.628906 18.976562 L 141.628906 287.546875 L 77.671875 287.546875 Z M 77.671875 18.976562 " clip-rule="nonzero"/></clipPath><clipPath id="c31b31934d"><path d="M 141.628906 46.988281 L 141.628906 287.429688 L 77.671875 259.414062 L 77.671875 18.976562 Z M 141.628906 46.988281 " clip-rule="nonzero"/></clipPath></defs><g clip-path="url(#ce7b36fc9d)"><g clip-path="url(#e3bde92ced)"><path fill="#57687c" d="M 217.285156 168.355469 L 217.285156 11.777344 L 273.503906 11.777344 L 273.503906 168.355469 Z M 217.285156 168.355469 " fill-opacity="1" fill-rule="nonzero"/></g></g><g clip-path="url(#b81b403f19)"><g clip-path="url(#d25dd603b0)"><path fill="#b4c7dd" d="M 360.773438 11.835938 L 360.773438 287.566406 L 274.902344 287.566406 L 274.902344 11.835938 Z M 360.773438 11.835938 " fill-opacity="1" fill-rule="nonzero"/></g></g><g clip-path="url(#8ed1a7bc0c)"><g clip-path="url(#de09ae117a)"><path fill="#57687c" d="M 109.65625 203.058594 L 109.65625 79.921875 L 171.710938 79.921875 L 171.710938 203.058594 Z M 109.65625 203.058594 " fill-opacity="1" fill-rule="nonzero"/></g></g><g clip-path="url(#d57c14d314)"><g clip-path="url(#1b1fc9f8a0)"><path fill="#b4c7dd" d="M 233.222656 79.835938 L 233.222656 259.792969 L 172.921875 259.792969 L 172.921875 79.835938 Z M 233.222656 79.835938 " fill-opacity="1" fill-rule="nonzero"/></g></g><g fill="#e0e0e0" fill-opacity="1"><g transform="translate(53.483952, 345.65031)"><g><path d="M 33.421875 -43.21875 C 35.597656 -43.21875 37.59375 -42.765625 39.40625 -41.859375 C 41.226562 -40.960938 42.671875 -39.695312 43.734375 -38.0625 C 44.804688 -36.425781 45.34375 -34.601562 45.34375 -32.59375 C 45.34375 -27.28125 42.9375 -23.929688 38.125 -22.546875 L 38.125 -22.296875 C 43.613281 -21.046875 46.359375 -17.445312 46.359375 -11.5 C 46.359375 -9.238281 45.800781 -7.238281 44.6875 -5.5 C 43.582031 -3.757812 42.066406 -2.40625 40.140625 -1.4375 C 38.210938 -0.476562 36.097656 0 33.796875 0 L 4.640625 0 L 4.640625 -43.21875 Z M 18.53125 -26.375 L 28.078125 -26.375 C 28.992188 -26.375 29.753906 -26.695312 30.359375 -27.34375 C 30.972656 -28 31.28125 -28.804688 31.28125 -29.765625 L 31.28125 -30.40625 C 31.28125 -31.320312 30.960938 -32.101562 30.328125 -32.75 C 29.703125 -33.40625 28.953125 -33.734375 28.078125 -33.734375 L 18.53125 -33.734375 Z M 18.53125 -10.046875 L 29.078125 -10.046875 C 30.003906 -10.046875 30.769531 -10.367188 31.375 -11.015625 C 31.976562 -11.671875 32.28125 -12.476562 32.28125 -13.4375 L 32.28125 -14.0625 C 32.28125 -15.03125 31.976562 -15.835938 31.375 -16.484375 C 30.769531 -17.140625 30.003906 -17.46875 29.078125 -17.46875 L 18.53125 -17.46875 Z M 18.53125 -10.046875 "/></g></g></g><g fill="#e0e0e0" fill-opacity="1"><g transform="translate(103.608607, 345.65031)"><g><path d="M 47.671875 -17.40625 C 47.671875 -11.5 45.804688 -6.992188 42.078125 -3.890625 C 38.359375 -0.796875 33.0625 0.75 26.1875 0.75 C 19.320312 0.75 14.015625 -0.796875 10.265625 -3.890625 C 6.515625 -6.992188 4.640625 -11.5 4.640625 -17.40625 L 4.640625 -43.21875 L 18.53125 -43.21875 L 18.53125 -17.59375 C 18.53125 -15.15625 19.175781 -13.210938 20.46875 -11.765625 C 21.769531 -10.328125 23.65625 -9.609375 26.125 -9.609375 C 28.601562 -9.609375 30.5 -10.335938 31.8125 -11.796875 C 33.132812 -13.265625 33.796875 -15.195312 33.796875 -17.59375 L 33.796875 -43.21875 L 47.671875 -43.21875 Z M 47.671875 -17.40625 "/></g></g></g><g fill="#e0e0e0" fill-opacity="1"><g transform="translate(157.187959, 345.65031)"><g><path d="M 5.28125 0 L 5.28125 -43.21875 L 19.15625 -43.21875 L 19.15625 0 Z M 5.28125 0 "/></g></g></g><g fill="#e0e0e0" fill-opacity="1"><g transform="translate(182.878558, 345.65031)"><g><path d="M 4.640625 -43.21875 L 18.53125 -43.21875 L 18.53125 -11.0625 L 40.703125 -11.0625 L 40.703125 0 L 4.640625 0 Z M 4.640625 -43.21875 "/></g></g></g><g fill="#e0e0e0" fill-opacity="1"><g transform="translate(226.031021, 345.65031)"><g><path d="M 23.359375 -43.21875 C 38.484375 -43.21875 46.046875 -36.015625 46.046875 -21.609375 C 46.046875 -7.203125 38.484375 0 23.359375 0 L 4.640625 0 L 4.640625 -43.21875 Z M 18.53125 -10.359375 L 23.109375 -10.359375 C 28.929688 -10.359375 31.84375 -13.476562 31.84375 -19.71875 L 31.84375 -23.484375 C 31.84375 -29.722656 28.929688 -32.84375 23.109375 -32.84375 L 18.53125 -32.84375 Z M 18.53125 -10.359375 "/></g></g></g><g fill="#e0e0e0" fill-opacity="1"><g transform="translate(276.155682, 345.65031)"><g><path d="M 22.859375 -10.359375 L 43.40625 -10.359375 L 43.40625 0 L 1.5 0 L 1.5 -4.453125 L 21.546875 -32.84375 L 3.015625 -32.84375 L 3.015625 -43.21875 L 42.90625 -43.21875 L 42.90625 -38.75 Z M 22.859375 -10.359375 "/></g></g></g><g clip-path="url(#64c6dbfb34)"><g clip-path="url(#7194311dda)"><path fill="#57687c" d="M 14.222656 238.082031 L 14.222656 18.953125 L 76.273438 18.953125 L 76.273438 238.082031 Z M 14.222656 238.082031 " fill-opacity="1" fill-rule="nonzero"/></g></g><g clip-path="url(#bd2bba62fb)"><g clip-path="url(#c31b31934d)"><path fill="#b4c7dd" d="M 141.628906 18.976562 L 141.628906 287.546875 L 77.671875 287.546875 L 77.671875 18.976562 Z M 141.628906 18.976562 " fill-opacity="1" fill-rule="nonzero"/></g></g></svg>